<?xml version="1.0" standalone="no"?>
<!DOCTYPE svg PUBLIC "-//W3C//DTD SVG 20010904//EN"
 "http://www.w3.org/TR/2001/REC-SVG-20010904/DTD/svg10.dtd">
<svg version="1.0" xmlns="http://www.w3.org/2000/svg"
 width="70.000000pt" height="70.000000pt" viewBox="0 0 70.000000 70.000000"
 preserveAspectRatio="xMidYMid meet">
<metadata>
Created by potrace 1.11, written by Peter Selinger 2001-2013
</metadata>
<g transform="translate(0.000000,70.000000) scale(0.100000,-0.100000)"
fill="#000000" stroke="none">
<path d="M263 609 c-18 -5 -33 -13 -33 -17 0 -4 -16 -24 -34 -44 -43 -48 -61
-116 -60 -238 0 -76 4 -102 19 -127 11 -18 22 -33 25 -33 3 0 17 -11 31 -24
31 -29 126 -51 182 -42 23 4 51 18 65 31 14 14 28 25 33 25 13 0 38 59 51 121
7 33 16 59 20 59 11 0 10 147 0 152 -5 2 -15 21 -24 43 -9 24 -26 45 -42 53
-14 7 -26 17 -26 22 0 25 -141 38 -207 19z m137 -49 c12 -7 15 -30 14 -107 -1
-94 -28 -262 -43 -273 -4 -3 -10 -13 -14 -22 -9 -25 -63 -24 -77 1 -5 11 -10
41 -10 68 0 65 21 203 32 203 4 0 8 13 8 29 0 28 21 89 36 104 10 10 36 9 54
-3z m-124 -35 c9 -36 -2 -55 -31 -55 -29 0 -40 19 -31 55 5 18 13 25 31 25 18
0 26 -7 31 -25z m248 -48 c13 -35 -10 -63 -43 -52 -16 5 -21 15 -21 40 0 52
47 61 64 12z"/>
</g>
</svg>
